<?xml version="1.0" encoding="UTF-8" standalone="no"?><!-- Generator: Gravit.io --><svg xmlns="http://www.w3.org/2000/svg" xmlns:xlink="http://www.w3.org/1999/xlink" style="isolation:isolate" viewBox="0 0 20 20" width="20pt" height="20pt"><defs><clipPath id="_clipPath_Gl8hrP2rqsUbDhaVhYWpSqwZ48OT7QhB"><rect width="20" height="20"/></clipPath></defs><g clip-path="url(#_clipPath_Gl8hrP2rqsUbDhaVhYWpSqwZ48OT7QhB)"><ellipse vector-effect="non-scaling-stroke" cx="9.902343749999998" cy="10.019531250000002" rx="9.160156249999996" ry="9.277343750000002" fill="rgb(252,87,83)"/><path d=" M 10 0 C 4.473 0 0 4.473 0 10 C 0 15.527 4.473 20 10 20 C 15.527 20 20 15.527 20 10 C 20 4.473 15.527 0 10 0 Z  M 10 19.023 C 5.336 19.023 0.977 14.663 0.977 10 C 0.977 5.336 5.337 0.977 10 0.977 C 14.664 0.977 19.023 5.337 19.023 10 C 19.023 14.664 14.663 19.023 10 19.023 Z " fill="rgb(223,71,68)"/></g></svg>