<?xml version="1.0" encoding="UTF-8" standalone="no"?><!-- Generator: Gravit.io --><svg xmlns="http://www.w3.org/2000/svg" xmlns:xlink="http://www.w3.org/1999/xlink" style="isolation:isolate" viewBox="0 0 181 71" width="181pt" height="71pt"><defs><clipPath id="_clipPath_mTOZt9M0OJ9ZkEMJyfUP2ZEEnUOzKRnm"><rect width="181" height="71"/></clipPath></defs><g clip-path="url(#_clipPath_mTOZt9M0OJ9ZkEMJyfUP2ZEEnUOzKRnm)"><linearGradient id="_lgradient_0" x1="0" y1="0.49999202399183246" x2="0.9999999999999999" y2="0.4999920239918323" gradientTransform="matrix(77,0,0,62.688,46.5,2.123)" gradientUnits="userSpaceOnUse"><stop offset="0%" stop-opacity="1" style="stop-color:rgb(23,159,89)"/><stop offset="100%" stop-opacity="1" style="stop-color:rgb(0,0,0)"/></linearGradient><path d=" M 106.743 29.457 C 105.33 28.135 103.039 28.135 101.625 29.457 L 88.619 41.628 L 88.619 5.509 C 88.619 3.639 86.999 2.123 85 2.123 C 83.002 2.123 81.382 3.639 81.382 5.509 L 81.382 41.629 L 68.375 29.457 C 66.962 28.135 64.67 28.135 63.257 29.457 C 61.844 30.78 61.844 32.923 63.257 34.246 L 82.442 52.197 C 83.12 52.832 84.041 53.189 85 53.189 C 85.96 53.189 86.88 52.832 87.559 52.197 L 106.743 34.245 C 108.156 32.923 108.156 30.779 106.743 29.457 Z  M 119.882 58.039 L 50.118 58.039 C 48.12 58.039 46.5 59.555 46.5 61.425 C 46.5 63.295 48.12 64.811 50.118 64.811 L 119.882 64.811 C 121.88 64.811 123.5 63.295 123.5 61.425 C 123.5 59.555 121.88 58.039 119.882 58.039 Z " fill-rule="evenodd" fill="url(#_lgradient_0)"/></g></svg>