<?xml version="1.0" encoding="UTF-8" standalone="no"?><!-- Generator: Gravit.io --><svg xmlns="http://www.w3.org/2000/svg" xmlns:xlink="http://www.w3.org/1999/xlink" style="isolation:isolate" viewBox="0 0 20 20" width="20pt" height="20pt"><defs><clipPath id="_clipPath_N9Jv33s8WE6KpP2sEy3nZLFtu8sdlYI2"><rect width="20" height="20"/></clipPath></defs><g clip-path="url(#_clipPath_N9Jv33s8WE6KpP2sEy3nZLFtu8sdlYI2)"><ellipse vector-effect="non-scaling-stroke" cx="9.992187500000002" cy="10.019531250000002" rx="9.25" ry="9.277343750000002" fill="rgb(63,120,210)"/><path d=" M 10 0 C 4.473 0 0 4.473 0 10 C 0 15.527 4.473 20 10 20 C 15.527 20 20 15.527 20 10 C 20 4.473 15.527 0 10 0 Z  M 10 19.023 C 5.336 19.023 0.977 14.663 0.977 10 C 0.977 5.336 5.337 0.977 10 0.977 C 14.664 0.977 19.023 5.337 19.023 10 C 19.023 14.664 14.663 19.023 10 19.023 Z " fill="rgb(235,235,235)"/><rect x="8.5" y="9.083" width="3" height="7.222" transform="matrix(1,0,0,1,0,0)" fill="rgb(235,235,235)"/><rect x="8.5" y="3.914" width="3" height="3" transform="matrix(1,0,0,1,0,0)" fill="rgb(235,235,235)"/></g></svg>