<?xml version="1.0" encoding="UTF-8" standalone="no"?>
<svg
   xmlns:dc="http://purl.org/dc/elements/1.1/"
   xmlns:cc="http://creativecommons.org/ns#"
   xmlns:rdf="http://www.w3.org/1999/02/22-rdf-syntax-ns#"
   xmlns:svg="http://www.w3.org/2000/svg"
   xmlns="http://www.w3.org/2000/svg"
   viewBox="0 0 891.03467 891.03467"
   height="891.03467"
   width="891.03467"
   xml:space="preserve"
   id="svg2"
   version="1.1"><metadata
     id="metadata8"><rdf:RDF><cc:Work
         rdf:about=""><dc:format>image/svg+xml</dc:format><dc:type
           rdf:resource="http://purl.org/dc/dcmitype/StillImage" /></cc:Work></rdf:RDF></metadata><defs
     id="defs6"><clipPath
       id="clipPath18"
       clipPathUnits="userSpaceOnUse"><path
         id="path16"
         d="M 0,668.276 H 668.276 V 0 H 0 Z" /></clipPath></defs><g
     transform="matrix(1.3333333,0,0,-1.3333333,0,891.03467)"
     id="g10"><g
       id="g12"><g
         clip-path="url(#clipPath18)"
         id="g14"><g
           transform="translate(92.4627,175.6151)"
           id="g20"><path
             id="path22"
             style="fill:#5d5d5d;fill-opacity:1;fill-rule:nonzero;stroke:none"
             d="m 0,0 c 10.75,0 19.464,8.802 19.464,19.659 v 268.492 l 47.544,27.723 v 45.401 l -76.74,-44.749 c -6.022,-3.511 -9.732,-10.001 -9.732,-17.025 V 19.659 C -19.464,8.802 -10.75,0 0,0" /></g><g
           transform="translate(231.7207,136.7697)"
           id="g24"><path
             id="path26"
             style="fill:#4b6e5c;fill-opacity:1;fill-rule:nonzero;stroke:none"
             d="m 0,0 -0.012,257.15 14.234,8.3 v 45.4 l -43.431,-25.325 c -6.023,-3.513 -9.733,-10.003 -9.732,-17.027 l 0.013,-279.85 c 0,-7.022 3.71,-13.512 9.732,-17.024 l 43.418,-25.318 v 45.401 z" /></g><g
           transform="translate(159.4704,536.8902)"
           id="g28"><path
             id="path30"
             style="fill:#4b6e5c;fill-opacity:1;fill-rule:nonzero;stroke:none"
             d="M 0,0 V -45.401 L 86.472,5.023 v 45.401 z" /></g><g
           transform="translate(332.4149,452.6429)"
           id="g32"><path
             id="path34"
             style="fill:#3a7e5b;fill-opacity:1;fill-rule:nonzero;stroke:none"
             d="m 0,0 v 42.36 c -3.361,0 -6.721,-0.878 -9.732,-2.634 l -76.74,-44.749 v -45.401 z" /></g><g
           transform="translate(292.8619,335.1949)"
           id="g36"><path
             id="path38"
             style="fill:#3a7e5b;fill-opacity:1;fill-rule:nonzero;stroke:none"
             d="m 0,0 c 0,-14.914 8.097,-27.91 20.089,-34.772 v -105.376 c 0,-7.024 3.71,-13.514 9.732,-17.026 3.011,-1.755 6.372,-2.633 9.732,-2.633 v 199.755 0 C 17.708,39.948 0,22.063 0,0" /></g><g
           transform="translate(245.9427,128.4765)"
           id="g40"><path
             id="path42"
             style="fill:#3a7e5b;fill-opacity:1;fill-rule:nonzero;stroke:none"
             d="M 0,0 V -45.401 L 76.74,-90.15 c 3.011,-1.755 6.372,-2.633 9.732,-2.633 v 42.359 z" /></g><g
           transform="translate(332.4149,634.6964)"
           id="g44"><path
             id="path46"
             style="fill:#3a7e5b;fill-opacity:1;fill-rule:nonzero;stroke:none"
             d="m 0,0 c -3.361,0 -6.721,-0.878 -9.732,-2.634 l -76.74,-44.749 v -45.4 L 0,-42.36 Z" /></g><g
           transform="translate(351.8799,229.0976)"
           id="g48"><path
             id="path50"
             style="fill:#288f5a;fill-opacity:1;fill-rule:nonzero;stroke:none"
             d="m 0,0 v 71.326 c 11.991,6.862 20.088,19.858 20.088,34.771 0,22.063 -17.709,39.948 -39.553,39.948 V -53.709 c 3.361,-10e-4 6.721,0.877 9.733,2.633 l 76.739,44.748 v 45.401 z" /></g><g
           transform="translate(332.4149,495.0024)"
           id="g52"><path
             id="path54"
             style="fill:#288f5a;fill-opacity:1;fill-rule:nonzero;stroke:none"
             d="m 0,0 v -42.36 l 86.472,-50.423 v 45.4 L 9.733,-2.634 C 6.721,-0.878 3.36,0 0,0" /></g><g
           transform="translate(418.8871,541.9131)"
           id="g56"><path
             id="path58"
             style="fill:#288f5a;fill-opacity:1;fill-rule:nonzero;stroke:none"
             d="m 0,0 v 45.401 l -76.74,44.748 c -3.011,1.756 -6.372,2.634 -9.732,2.634 V 50.424 Z" /></g><g
           transform="translate(332.4149,78.0525)"
           id="g60"><path
             id="path62"
             style="fill:#288f5a;fill-opacity:1;fill-rule:nonzero;stroke:none"
             d="m 0,0 v -42.359 c 3.361,0 6.721,0.878 9.733,2.633 L 86.472,5.023 v 45.401 z" /></g><g
           transform="translate(418.8871,83.0756)"
           id="g64"><path
             id="path66"
             style="fill:#179f59;fill-opacity:1;fill-rule:nonzero;stroke:none"
             d="M 0,0 86.472,50.424 V 95.825 L 0,45.401 Z" /></g><g
           transform="translate(418.8871,541.9131)"
           id="g68"><path
             id="path70"
             style="fill:#179f59;fill-opacity:1;fill-rule:nonzero;stroke:none"
             d="M 0,0 86.472,-50.424 V -5.023 L 0,45.401 Z" /></g><g
           transform="translate(433.1212,393.9188)"
           id="g72"><path
             id="path74"
             style="fill:#179f59;fill-opacity:1;fill-rule:nonzero;stroke:none"
             d="m 0,0 v -117.448 l -14.234,-8.3 v -45.401 l 43.431,25.325 c 6.022,3.512 9.732,10.002 9.732,17.026 V 11.35 c 0,7.024 -3.71,13.514 -9.732,17.026 L -14.234,53.701 V 8.3 Z" /></g><g
           transform="translate(582.0993,492.1416)"
           id="g76"><path
             id="path78"
             style="fill:#05b058;fill-opacity:1;fill-rule:nonzero;stroke:none"
             d="M 0,0 -76.74,44.749 V -0.652 l 47.543,-27.724 v -257.141 l -47.543,-27.724 v -45.401 L 0,-313.893 c 6.022,3.512 9.732,10.002 9.732,17.026 V -17.025 C 9.732,-10.002 6.022,-3.512 0,0" /></g></g></g></g></svg>