<?xml version="1.0" encoding="UTF-8" standalone="no"?><!-- Generator: Gravit.io --><svg xmlns="http://www.w3.org/2000/svg" xmlns:xlink="http://www.w3.org/1999/xlink" style="isolation:isolate" viewBox="0 0 181 71" width="181pt" height="71pt"><defs><clipPath id="_clipPath_cgTFnY4ZPIYH1X0OuP06RHecKa489l2D"><rect width="181" height="71"/></clipPath></defs><g clip-path="url(#_clipPath_cgTFnY4ZPIYH1X0OuP06RHecKa489l2D)"><linearGradient id="_lgradient_0" x1="-1.1102230246251565e-16" y1="0.49998264914744706" x2="0.9999999999999999" y2="0.49998264914744706" gradientTransform="matrix(62.767,0,0,43.226,59.117,13.887)" gradientUnits="userSpaceOnUse"><stop offset="0%" stop-opacity="1" style="stop-color:rgb(23,159,89)"/><stop offset="100%" stop-opacity="1" style="stop-color:rgb(0,0,0)"/></linearGradient><path d=" M 83.151 56.28 C 82.552 56.815 81.735 57.113 80.885 57.113 C 80.036 57.113 79.219 56.815 78.62 56.28 L 60.525 40.229 C 58.647 38.564 58.647 35.863 60.525 34.201 L 62.791 32.191 C 64.669 30.525 67.71 30.525 69.588 32.191 L 80.885 42.211 L 111.412 15.136 C 113.29 13.471 116.335 13.471 118.209 15.136 L 120.475 17.146 C 122.353 18.812 122.353 21.512 120.475 23.175 L 83.151 56.28 L 83.151 56.28 L 83.151 56.28 Z " fill="url(#_lgradient_0)"/></g></svg>