<?xml version="1.0" encoding="UTF-8" standalone="no"?><!-- Generator: Gravit.io --><svg xmlns="http://www.w3.org/2000/svg" xmlns:xlink="http://www.w3.org/1999/xlink" style="isolation:isolate" viewBox="0 0 181 71" width="181pt" height="71pt"><defs><clipPath id="_clipPath_56AE1w2yegZS9VRgwcXd4ssphGxp7YEg"><rect width="181" height="71"/></clipPath></defs><g clip-path="url(#_clipPath_56AE1w2yegZS9VRgwcXd4ssphGxp7YEg)"><linearGradient id="_lgradient_1" x1="0" y1="0.4999805918514916" x2="0.9999807603509312" y2="0.4999805918514916" gradientTransform="matrix(51.976,0,0,51.526,64.512,9.737)" gradientUnits="userSpaceOnUse"><stop offset="0%" stop-opacity="1" style="stop-color:rgb(152,0,0)"/><stop offset="100%" stop-opacity="1" style="stop-color:rgb(0,0,0)"/></linearGradient><path d=" M 114.871 51.931 C 117.027 54.068 117.027 57.523 114.871 59.661 C 113.795 60.727 112.384 61.263 110.971 61.263 C 109.559 61.263 108.147 60.727 107.072 59.661 L 90.5 43.232 L 73.928 59.661 C 72.853 60.727 71.441 61.263 70.029 61.263 C 68.616 61.263 67.205 60.727 66.129 59.661 C 63.973 57.523 63.973 54.068 66.129 51.931 L 82.702 35.501 L 66.129 19.071 C 63.973 16.934 63.973 13.478 66.129 11.341 C 68.286 9.203 71.771 9.203 73.928 11.341 L 90.5 27.77 L 107.072 11.341 C 109.229 9.203 112.714 9.203 114.871 11.341 C 117.027 13.478 117.027 16.934 114.871 19.071 L 98.298 35.501 L 114.871 51.931 L 114.871 51.931 L 114.871 51.931 L 114.871 51.931 L 114.871 51.931 Z " fill="url(#_lgradient_1)"/></g></svg>